<mxfile host="app.diagrams.net" agent="Mozilla/5.0 (Windows NT 10.0; Win64; x64) AppleWebKit/537.36 (KHTML, like Gecko) Chrome/131.0.0.0 Safari/537.36" version="25.0.3">
  <diagram name="Page-1" id="We9bZzs3DM0-vuiA2nEg">
    <mxGraphModel dx="1674" dy="746" grid="1" gridSize="10" guides="1" tooltips="1" connect="1" arrows="1" fold="1" page="1" pageScale="1" pageWidth="827" pageHeight="1169" math="0" shadow="0">
      <root>
        <mxCell id="0" />
        <mxCell id="1" parent="0" />
        <mxCell id="3_zgzGlTaNr-AMyUEZeM-1" value="" style="rounded=0;whiteSpace=wrap;html=1;" parent="1" vertex="1">
          <mxGeometry x="250" y="80" width="300" height="240" as="geometry" />
        </mxCell>
        <mxCell id="3_zgzGlTaNr-AMyUEZeM-2" value="PRESENTACION&amp;nbsp; Y CONTEXTO DEL PROYECTO" style="text;html=1;align=center;verticalAlign=middle;whiteSpace=wrap;rounded=0;" parent="1" vertex="1">
          <mxGeometry x="222.5" y="40" width="355" height="40" as="geometry" />
        </mxCell>
        <mxCell id="3_zgzGlTaNr-AMyUEZeM-4" value="&lt;h1 style=&quot;margin-top: 0px;&quot;&gt;&lt;font style=&quot;font-size: 14px; font-weight: normal;&quot;&gt;Presentacion del equipo haciendo referencia al proyecto del mod 2&lt;/font&gt;&lt;/h1&gt;&lt;div&gt;&lt;font style=&quot;font-size: 14px; font-weight: normal;&quot;&gt;- Fotos de todos los miembros del equipo y que con marcadores con 1 click se queden solo las fotos de Maca y Fiona&lt;/font&gt;&lt;/div&gt;" style="text;html=1;whiteSpace=wrap;overflow=hidden;rounded=0;" parent="1" vertex="1">
          <mxGeometry x="260" y="370" width="290" height="160" as="geometry" />
        </mxCell>
        <mxCell id="3_zgzGlTaNr-AMyUEZeM-5" value="" style="endArrow=classic;html=1;rounded=0;entryX=0.476;entryY=0.019;entryDx=0;entryDy=0;entryPerimeter=0;" parent="1" source="3_zgzGlTaNr-AMyUEZeM-1" target="3_zgzGlTaNr-AMyUEZeM-4" edge="1">
          <mxGeometry width="50" height="50" relative="1" as="geometry">
            <mxPoint x="390" y="410" as="sourcePoint" />
            <mxPoint x="370" y="580" as="targetPoint" />
          </mxGeometry>
        </mxCell>
        <mxCell id="3_zgzGlTaNr-AMyUEZeM-6" value="Nombre del equipo previo&amp;nbsp;&lt;span style=&quot;font-family: &#39;Segoe UI&#39;;&quot;&gt;&quot;FM-AMY Waves&quot; con fotos&lt;/span&gt;" style="text;html=1;align=center;verticalAlign=middle;whiteSpace=wrap;rounded=0;" parent="1" vertex="1">
          <mxGeometry x="240" y="120" width="320" height="30" as="geometry" />
        </mxCell>
        <mxCell id="3_zgzGlTaNr-AMyUEZeM-8" value="" style="rounded=0;whiteSpace=wrap;html=1;" parent="1" vertex="1">
          <mxGeometry x="270" y="170" width="70" height="40" as="geometry" />
        </mxCell>
        <mxCell id="3_zgzGlTaNr-AMyUEZeM-9" value="" style="rounded=0;whiteSpace=wrap;html=1;" parent="1" vertex="1">
          <mxGeometry x="360" y="170" width="70" height="40" as="geometry" />
        </mxCell>
        <mxCell id="3_zgzGlTaNr-AMyUEZeM-10" value="" style="rounded=0;whiteSpace=wrap;html=1;" parent="1" vertex="1">
          <mxGeometry x="440" y="170" width="70" height="40" as="geometry" />
        </mxCell>
        <mxCell id="3_zgzGlTaNr-AMyUEZeM-11" value="" style="rounded=1;whiteSpace=wrap;html=1;" parent="1" vertex="1">
          <mxGeometry x="375" y="270" width="40" height="20" as="geometry" />
        </mxCell>
        <mxCell id="3_zgzGlTaNr-AMyUEZeM-12" value="" style="endArrow=classic;html=1;rounded=0;" parent="1" source="3_zgzGlTaNr-AMyUEZeM-11" edge="1">
          <mxGeometry width="50" height="50" relative="1" as="geometry">
            <mxPoint x="500" y="290" as="sourcePoint" />
            <mxPoint x="590" y="260" as="targetPoint" />
          </mxGeometry>
        </mxCell>
        <mxCell id="3_zgzGlTaNr-AMyUEZeM-14" value="&lt;h1 style=&quot;margin-top: 0px;&quot;&gt;&lt;span style=&quot;font-size: 14px; font-weight: 400;&quot;&gt;Boton que actualice las fotos&amp;nbsp;&lt;/span&gt;&lt;/h1&gt;" style="text;html=1;whiteSpace=wrap;overflow=hidden;rounded=0;align=center;" parent="1" vertex="1">
          <mxGeometry x="610" y="220" width="200" height="70" as="geometry" />
        </mxCell>
        <mxCell id="3_zgzGlTaNr-AMyUEZeM-15" value="" style="endArrow=none;html=1;rounded=0;" parent="1" edge="1">
          <mxGeometry width="50" height="50" relative="1" as="geometry">
            <mxPoint x="154" y="540" as="sourcePoint" />
            <mxPoint x="674" y="540" as="targetPoint" />
          </mxGeometry>
        </mxCell>
        <mxCell id="3_zgzGlTaNr-AMyUEZeM-16" value="" style="rounded=0;whiteSpace=wrap;html=1;" parent="1" vertex="1">
          <mxGeometry x="390" y="600" width="300" height="240" as="geometry" />
        </mxCell>
        <mxCell id="3_zgzGlTaNr-AMyUEZeM-17" value="PRINCIPAL" style="text;html=1;align=center;verticalAlign=middle;whiteSpace=wrap;rounded=0;" parent="1" vertex="1">
          <mxGeometry x="362.5" y="560" width="355" height="40" as="geometry" />
        </mxCell>
        <mxCell id="3_zgzGlTaNr-AMyUEZeM-18" value="" style="rounded=0;whiteSpace=wrap;html=1;" parent="1" vertex="1">
          <mxGeometry x="450" y="630" width="90" height="70" as="geometry" />
        </mxCell>
        <mxCell id="4iDO3G8YwvMiH_JXQdIN-1" value="&lt;h1 style=&quot;margin-top: 0px;&quot;&gt;&lt;span style=&quot;background-color: initial;&quot;&gt;Buscar&lt;/span&gt;&lt;/h1&gt;&lt;div&gt;&lt;span style=&quot;background-color: initial;&quot;&gt;- Tendencias temporales de los 4 tipos de musica&lt;/span&gt;&lt;/div&gt;&lt;div&gt;&lt;span style=&quot;background-color: initial;&quot;&gt;&lt;br&gt;&lt;/span&gt;&lt;/div&gt;&lt;div&gt;&lt;span style=&quot;background-color: initial;&quot;&gt;- Elegir estetica del proyecto -&amp;gt; spotify? podemos sacar colores del tema spotify&lt;/span&gt;&lt;/div&gt;" style="text;html=1;whiteSpace=wrap;overflow=hidden;rounded=0;" vertex="1" parent="1">
          <mxGeometry x="10" y="80" width="225" height="200" as="geometry" />
        </mxCell>
        <mxCell id="4iDO3G8YwvMiH_JXQdIN-3" value="&lt;h1 style=&quot;margin-top: 0px;&quot;&gt;&lt;span style=&quot;background-color: initial;&quot;&gt;Propuestas&lt;/span&gt;&lt;/h1&gt;&lt;div&gt;&lt;span style=&quot;background-color: initial;&quot;&gt;-&amp;nbsp; Paises donde pertenecen mas artistas&lt;/span&gt;&lt;/div&gt;&lt;div&gt;&lt;span style=&quot;background-color: initial;&quot;&gt;&lt;br&gt;&lt;/span&gt;&lt;/div&gt;&lt;div&gt;&lt;span style=&quot;background-color: initial;&quot;&gt;- Comparar los lanzamientos de canciones por genero en los anios de la muestra -&amp;gt; boton que te lleve a pag con analisis mas detallado&lt;/span&gt;&lt;/div&gt;&lt;div&gt;&lt;span style=&quot;background-color: initial;&quot;&gt;&lt;br&gt;&lt;/span&gt;&lt;/div&gt;&lt;div&gt;- Produccion por artistas -&amp;gt; que artistas han sacado mas canciones en los anios de muestra? genero de las mismas?&lt;/div&gt;&lt;div&gt;&lt;br&gt;&lt;/div&gt;&lt;div&gt;- Top 10 artistas mas escuchados, comparando listener y playcount&lt;/div&gt;" style="text;html=1;whiteSpace=wrap;overflow=hidden;rounded=0;" vertex="1" parent="1">
          <mxGeometry x="35" y="600" width="285" height="260" as="geometry" />
        </mxCell>
      </root>
    </mxGraphModel>
  </diagram>
</mxfile>
